<?xml version="1.0" standalone="no"?>
<!DOCTYPE svg PUBLIC "-//W3C//DTD SVG 20010904//EN"
 "http://www.w3.org/TR/2001/REC-SVG-20010904/DTD/svg10.dtd">
<svg version="1.0" xmlns="http://www.w3.org/2000/svg"
 width="420.000000pt" height="420.000000pt" viewBox="0 0 420.000000 420.000000"
 preserveAspectRatio="xMidYMid meet">
<metadata>
Created by potrace 1.14, written by Peter Selinger 2001-2017
</metadata>
<g transform="translate(0.000000,420.000000) scale(0.100000,-0.100000)"
fill="#000000" stroke="none">
<path d="M1454 3606 c-22 -7 -49 -11 -60 -9 -85 16 -124 15 -158 -7 -27 -16
-45 -20 -74 -16 -125 20 -118 20 -133 -13 -9 -20 -27 -36 -52 -46 -21 -8 -55
-32 -76 -53 -21 -20 -52 -49 -69 -64 -33 -29 -55 -90 -51 -142 2 -17 -5 -48
-15 -69 -14 -28 -17 -51 -13 -91 3 -30 1 -58 -4 -63 -5 -5 -13 -24 -18 -41 -7
-24 -6 -36 8 -54 13 -17 17 -37 14 -81 -3 -43 2 -70 18 -105 17 -37 21 -70 23
-162 2 -63 6 -128 10 -145 3 -16 8 -50 10 -75 5 -51 41 -236 51 -262 8 -21 5
-21 -30 -8 -21 8 -29 6 -43 -10 -25 -30 -29 -67 -16 -140 19 -103 93 -321 123
-365 20 -28 35 -72 50 -144 55 -255 169 -480 321 -628 90 -89 95 -93 108 -93
7 0 12 -5 12 -11 0 -5 5 -7 10 -4 6 3 10 2 10 -3 0 -5 8 -12 18 -15 9 -4 35
-13 57 -22 116 -45 329 -63 470 -41 188 30 402 129 517 238 36 35 44 35 52 -2
6 -33 31 -63 59 -73 16 -6 16 -8 -1 -39 -41 -72 -14 -136 72 -177 121 -57 198
-76 311 -75 306 2 514 94 618 273 17 31 32 59 33 64 1 4 3 9 4 12 1 3 3 8 4
13 15 61 19 84 21 122 1 25 -2 63 -7 85 -11 55 -58 165 -70 165 -5 0 -7 4 -4
9 3 4 -3 16 -14 26 -11 10 -20 22 -20 26 0 5 -20 39 -44 76 -67 104 -78 131
-81 196 -3 69 14 133 60 217 7 14 14 28 14 33 1 4 1 8 2 10 19 58 0 100 -54
122 -78 31 -146 19 -208 -37 -32 -28 -84 -98 -74 -98 4 0 2 -6 -4 -14 -19 -23
-24 -56 -25 -176 -1 -133 -12 -161 -74 -187 -31 -13 -45 -13 -92 -2 -30 7 -62
14 -70 16 -28 7 -65 12 -88 12 -22 1 -23 4 -17 49 3 26 8 101 11 166 2 66 6
121 8 123 1 2 15 4 31 5 40 4 74 52 91 130 25 115 25 316 1 380 -28 74 -80 97
-124 56 -13 -12 -25 -20 -27 -17 -2 2 -7 40 -10 84 -4 44 -9 96 -11 115 -11
89 -18 146 -18 160 1 38 -39 235 -57 283 -26 70 -47 97 -138 180 -17 15 -29
35 -28 45 4 24 -19 99 -35 114 -8 7 -32 26 -54 42 -22 17 -42 32 -45 36 -7 8
-91 48 -120 56 -30 9 -37 11 -70 18 -14 3 -37 8 -52 12 -15 3 -30 5 -33 4 -3
0 -18 6 -33 14 -35 19 -62 29 -109 40 -10 3 -18 5 -18 6 0 1 -7 3 -15 5 -29 7
-60 15 -82 21 -13 3 -59 7 -103 9 -44 1 -91 6 -105 9 -50 14 -136 15 -176 2z"/>
</g>
</svg>
